<?xml version="1.0" encoding="UTF-8"?>
<svg version="1.1" xmlns="http://www.w3.org/2000/svg" width="1080" height="1080">
<path d="M0 0 C42.24 0 84.48 0 128 0 C128 5.28 128 10.56 128 16 C138.56 16 149.12 16 160 16 C160 20.95 160 25.9 160 31 C165.28 31 170.56 31 176 31 C176 36.28 176 41.56 176 47 C186.23 47 196.46 47 207 47 C207 52.28 207 57.56 207 63 C212.61 63 218.22 63 224 63 C224 68.28 224 73.56 224 79 C234.56 79 245.12 79 256 79 C256 84.28 256 89.56 256 95 C260.95 95 265.9 95 271 95 C271 99.95 271 104.9 271 110 C281.56 110 292.12 110 303 110 C303 115.28 303 120.56 303 126 C308.28 126 313.56 126 319 126 C319 131.28 319 136.56 319 142 C324.28 142 329.56 142 335 142 C335 147.28 335 152.56 335 158 C339.95 158 344.9 158 350 158 C350 163.61 350 169.22 350 175 C355.28 175 360.56 175 366 175 C366 179.62 366 184.24 366 189 C371.28 189 376.56 189 382 189 C382 194.28 382 199.56 382 205 C387.28 205 392.56 205 398 205 C398 210.61 398 216.22 398 222 C403.61 222 409.22 222 415 222 C415 227.28 415 232.56 415 238 C419.62 238 424.24 238 429 238 C429 248.23 429 258.46 429 269 C434.28 269 439.56 269 445 269 C445 274.28 445 279.56 445 285 C450.61 285 456.22 285 462 285 C462 295.56 462 306.12 462 317 C467.28 317 472.56 317 478 317 C478 327.23 478 337.46 478 348 C483.28 348 488.56 348 494 348 C494 380.01 494 412.02 494 445 C488.72 445 483.44 445 478 445 C478 450.28 478 455.56 478 461 C472.72 461 467.44 461 462 461 C462 466.28 462 471.56 462 477 C456.39 477 450.78 477 445 477 C445 482.61 445 488.22 445 494 C435.1 494 425.2 494 415 494 C415 498.62 415 503.24 415 508 C346.36 508 277.72 508 207 508 C207 533.74 207 559.48 207 586 C212.61 586 218.22 586 224 586 C224 602.17 224 618.34 224 635 C229.28 635 234.56 635 240 635 C240 645.23 240 655.46 240 666 C245.28 666 250.56 666 256 666 C256 681.84 256 697.68 256 714 C260.95 714 265.9 714 271 714 C271 740.73 271 767.46 271 795 C266.05 795 261.1 795 256 795 C256 800.28 256 805.56 256 811 C250.72 811 245.44 811 240 811 C240 815.95 240 820.9 240 826 C234.72 826 229.44 826 224 826 C224 831.28 224 836.56 224 842 C208.16 842 192.32 842 176 842 C176 847.28 176 852.56 176 858 C170.72 858 165.44 858 160 858 C160 863.28 160 868.56 160 874 C96.64 874 33.28 874 -32 874 C-32 868.72 -32 863.44 -32 858 C-37.28 858 -42.56 858 -48 858 C-48 852.72 -48 847.44 -48 842 C-63.51 842 -79.02 842 -95 842 C-95 836.72 -95 831.44 -95 826 C-100.61 826 -106.22 826 -112 826 C-112 821.05 -112 816.1 -112 811 C-117.28 811 -122.56 811 -128 811 C-128 805.72 -128 800.44 -128 795 C-132.95 795 -137.9 795 -143 795 C-143 768.27 -143 741.54 -143 714 C-138.05 714 -133.1 714 -128 714 C-128 698.16 -128 682.32 -128 666 C-122.72 666 -117.44 666 -112 666 C-112 655.77 -112 645.54 -112 635 C-106.39 635 -100.78 635 -95 635 C-95 618.83 -95 602.66 -95 586 C-89.72 586 -84.44 586 -79 586 C-79 560.26 -79 534.52 -79 508 C-147.64 508 -216.28 508 -287 508 C-287 503.38 -287 498.76 -287 494 C-296.9 494 -306.8 494 -317 494 C-317 488.39 -317 482.78 -317 477 C-322.61 477 -328.22 477 -334 477 C-334 471.72 -334 466.44 -334 461 C-339.28 461 -344.56 461 -350 461 C-350 455.72 -350 450.44 -350 445 C-355.28 445 -360.56 445 -366 445 C-366 412.99 -366 380.98 -366 348 C-360.72 348 -355.44 348 -350 348 C-350 337.77 -350 327.54 -350 317 C-344.72 317 -339.44 317 -334 317 C-334 306.44 -334 295.88 -334 285 C-328.39 285 -322.78 285 -317 285 C-317 279.72 -317 274.44 -317 269 C-311.72 269 -306.44 269 -301 269 C-301 258.77 -301 248.54 -301 238 C-296.38 238 -291.76 238 -287 238 C-287 232.72 -287 227.44 -287 222 C-281.39 222 -275.78 222 -270 222 C-270 216.39 -270 210.78 -270 205 C-264.72 205 -259.44 205 -254 205 C-254 199.72 -254 194.44 -254 189 C-248.72 189 -243.44 189 -238 189 C-238 184.38 -238 179.76 -238 175 C-232.72 175 -227.44 175 -222 175 C-222 169.39 -222 163.78 -222 158 C-217.05 158 -212.1 158 -207 158 C-207 152.72 -207 147.44 -207 142 C-201.72 142 -196.44 142 -191 142 C-191 136.72 -191 131.44 -191 126 C-185.72 126 -180.44 126 -175 126 C-175 120.72 -175 115.44 -175 110 C-164.44 110 -153.88 110 -143 110 C-143 105.05 -143 100.1 -143 95 C-138.05 95 -133.1 95 -128 95 C-128 89.72 -128 84.44 -128 79 C-117.11 79 -106.22 79 -95 79 C-95 73.72 -95 68.44 -95 63 C-89.72 63 -84.44 63 -79 63 C-79 57.72 -79 52.44 -79 47 C-68.77 47 -58.54 47 -48 47 C-48 41.72 -48 36.44 -48 31 C-42.72 31 -37.44 31 -32 31 C-32 26.05 -32 21.1 -32 16 C-21.44 16 -10.88 16 0 16 C0 10.72 0 5.44 0 0 Z " fill="#FE3737" transform="translate(476,124)"/>
<path d="M0 0 C62.7 0 125.4 0 190 0 C190 5.28 190 10.56 190 16 C195.28 16 200.56 16 206 16 C206 21.28 206 26.56 206 32 C211.28 32 216.56 32 222 32 C222 52.79 222 73.58 222 95 C227.28 95 232.56 95 238 95 C238 105.56 238 116.12 238 127 C243.28 127 248.56 127 254 127 C254 137.23 254 147.46 254 158 C259.28 158 264.56 158 270 158 C270 195.29 270 232.58 270 271 C264.72 271 259.44 271 254 271 C254 276.28 254 281.56 254 287 C238.49 287 222.98 287 207 287 C207 291.62 207 296.24 207 301 C196.11 301 185.22 301 174 301 C174 306.28 174 311.56 174 317 C121.86 317 69.72 317 16 317 C16 311.72 16 306.44 16 301 C5.44 301 -5.12 301 -16 301 C-16 296.05 -16 291.1 -16 286 C-31.51 286 -47.02 286 -63 286 C-63 280.72 -63 275.44 -63 270 C-68.61 270 -74.22 270 -80 270 C-80 233.04 -80 196.08 -80 158 C-74.72 158 -69.44 158 -64 158 C-64 147.77 -64 137.54 -64 127 C-58.72 127 -53.44 127 -48 127 C-48 111.16 -48 95.32 -48 79 C-42.39 79 -36.78 79 -31 79 C-31 63.49 -31 47.98 -31 32 C-26.05 32 -21.1 32 -16 32 C-16 26.72 -16 21.44 -16 16 C-10.72 16 -5.44 16 0 16 C0 10.72 0 5.44 0 0 Z " fill="#FEEDBA" transform="translate(445,648)"/>
<path d="M0 0 C5.28 0 10.56 0 16 0 C16 10.56 16 21.12 16 32 C10.72 32 5.44 32 0 32 C0 42.89 0 53.78 0 65 C-5.28 65 -10.56 65 -16 65 C-16 75.23 -16 85.46 -16 96 C-21.28 96 -26.56 96 -32 96 C-32 116.79 -32 137.58 -32 159 C-26.72 159 -21.44 159 -16 159 C-16 164.61 -16 170.22 -16 176 C-10.72 176 -5.44 176 0 176 C0 181.28 0 186.56 0 192 C5.61 192 11.22 192 17 192 C17 196.95 17 201.9 17 207 C21.62 207 26.24 207 31 207 C31 201.72 31 196.44 31 191 C52.45 191 73.9 191 96 191 C96 186.05 96 181.1 96 176 C106.23 176 116.46 176 127 176 C127 154.88 127 133.76 127 112 C137.56 112 148.12 112 159 112 C159 117.28 159 122.56 159 128 C153.72 128 148.44 128 143 128 C143 143.51 143 159.02 143 175 C148.28 175 153.56 175 159 175 C159 169.72 159 164.44 159 159 C164.28 159 169.56 159 175 159 C175 154.05 175 149.1 175 144 C195.79 144 216.58 144 238 144 C238 148.95 238 153.9 238 159 C222.16 159 206.32 159 190 159 C190 164.28 190 169.56 190 175 C185.05 175 180.1 175 175 175 C175 185.89 175 196.78 175 208 C216.91 208 258.82 208 302 208 C302 202.72 302 197.44 302 192 C306.95 192 311.9 192 317 192 C317 197.28 317 202.56 317 208 C327.56 208 338.12 208 349 208 C349 202.72 349 197.44 349 192 C370.12 192 391.24 192 413 192 C413 197.28 413 202.56 413 208 C423.56 208 434.12 208 445 208 C445 202.72 445 197.44 445 192 C449.95 192 454.9 192 460 192 C460 197.28 460 202.56 460 208 C501.91 208 543.82 208 587 208 C587 197.11 587 186.22 587 175 C582.05 175 577.1 175 572 175 C572 169.72 572 164.44 572 159 C556.16 159 540.32 159 524 159 C524 154.05 524 149.1 524 144 C544.79 144 565.58 144 587 144 C587 148.95 587 153.9 587 159 C592.28 159 597.56 159 603 159 C603 164.28 603 169.56 603 175 C608.28 175 613.56 175 619 175 C619 159.49 619 143.98 619 128 C613.72 128 608.44 128 603 128 C603 122.72 603 117.44 603 112 C613.56 112 624.12 112 635 112 C635 133.12 635 154.24 635 176 C645.23 176 655.46 176 666 176 C666 181.28 666 186.56 666 192 C687.45 192 708.9 192 731 192 C731 196.95 731 201.9 731 207 C735.62 207 740.24 207 745 207 C745 202.05 745 197.1 745 192 C750.61 192 756.22 192 762 192 C762 186.72 762 181.44 762 176 C767.28 176 772.56 176 778 176 C778 170.39 778 164.78 778 159 C783.28 159 788.56 159 794 159 C794 138.21 794 117.42 794 96 C788.72 96 783.44 96 778 96 C778 85.77 778 75.54 778 65 C772.72 65 767.44 65 762 65 C762 54.11 762 43.22 762 32 C756.72 32 751.44 32 746 32 C746 21.44 746 10.88 746 0 C751.28 0 756.56 0 762 0 C762 5.28 762 10.56 762 16 C767.61 16 773.22 16 779 16 C779 26.56 779 37.12 779 48 C784.28 48 789.56 48 795 48 C795 58.23 795 68.46 795 79 C800.28 79 805.56 79 811 79 C811 111.01 811 143.02 811 176 C805.72 176 800.44 176 795 176 C795 181.28 795 186.56 795 192 C789.72 192 784.44 192 779 192 C779 197.28 779 202.56 779 208 C773.39 208 767.78 208 762 208 C762 213.61 762 219.22 762 225 C752.1 225 742.2 225 732 225 C732 229.62 732 234.24 732 239 C663.36 239 594.72 239 524 239 C524 264.74 524 290.48 524 317 C529.61 317 535.22 317 541 317 C541 333.17 541 349.34 541 366 C546.28 366 551.56 366 557 366 C557 376.23 557 386.46 557 397 C562.28 397 567.56 397 573 397 C573 412.84 573 428.68 573 445 C577.95 445 582.9 445 588 445 C588 471.73 588 498.46 588 526 C583.05 526 578.1 526 573 526 C573 531.28 573 536.56 573 542 C567.72 542 562.44 542 557 542 C557 546.95 557 551.9 557 557 C551.72 557 546.44 557 541 557 C541 562.28 541 567.56 541 573 C525.16 573 509.32 573 493 573 C493 578.28 493 583.56 493 589 C487.72 589 482.44 589 477 589 C477 594.28 477 599.56 477 605 C413.64 605 350.28 605 285 605 C285 599.72 285 594.44 285 589 C279.72 589 274.44 589 269 589 C269 583.72 269 578.44 269 573 C253.49 573 237.98 573 222 573 C222 567.72 222 562.44 222 557 C216.39 557 210.78 557 205 557 C205 552.05 205 547.1 205 542 C199.72 542 194.44 542 189 542 C189 536.72 189 531.44 189 526 C184.05 526 179.1 526 174 526 C174 499.27 174 472.54 174 445 C178.95 445 183.9 445 189 445 C189 429.16 189 413.32 189 397 C194.28 397 199.56 397 205 397 C205 386.77 205 376.54 205 366 C210.61 366 216.22 366 222 366 C222 349.83 222 333.66 222 317 C227.28 317 232.56 317 238 317 C238 291.26 238 265.52 238 239 C169.36 239 100.72 239 30 239 C30 234.38 30 229.76 30 225 C20.1 225 10.2 225 0 225 C0 219.39 0 213.78 0 208 C-5.61 208 -11.22 208 -17 208 C-17 202.72 -17 197.44 -17 192 C-22.28 192 -27.56 192 -33 192 C-33 186.72 -33 181.44 -33 176 C-38.28 176 -43.56 176 -49 176 C-49 143.99 -49 111.98 -49 79 C-43.72 79 -38.44 79 -33 79 C-33 68.77 -33 58.54 -33 48 C-27.72 48 -22.44 48 -17 48 C-17 37.44 -17 26.88 -17 16 C-11.39 16 -5.78 16 0 16 C0 10.72 0 5.44 0 0 Z M286 255 C286 260.28 286 265.56 286 271 C280.72 271 275.44 271 270 271 C270 276.28 270 281.56 270 287 C265.05 287 260.1 287 255 287 C255 302.51 255 318.02 255 334 C249.39 334 243.78 334 238 334 C238 349.84 238 365.68 238 382 C232.72 382 227.44 382 222 382 C222 392.23 222 402.46 222 413 C216.72 413 211.44 413 206 413 C206 449.96 206 486.92 206 525 C211.61 525 217.22 525 223 525 C223 530.28 223 535.56 223 541 C238.51 541 254.02 541 270 541 C270 545.95 270 550.9 270 556 C280.56 556 291.12 556 302 556 C302 561.28 302 566.56 302 572 C354.14 572 406.28 572 460 572 C460 566.72 460 561.44 460 556 C470.89 556 481.78 556 493 556 C493 551.38 493 546.76 493 542 C508.51 542 524.02 542 540 542 C540 536.72 540 531.44 540 526 C545.28 526 550.56 526 556 526 C556 488.71 556 451.42 556 413 C550.72 413 545.44 413 540 413 C540 402.77 540 392.54 540 382 C534.72 382 529.44 382 524 382 C524 371.44 524 360.88 524 350 C518.72 350 513.44 350 508 350 C508 329.21 508 308.42 508 287 C502.72 287 497.44 287 492 287 C492 281.72 492 276.44 492 271 C486.72 271 481.44 271 476 271 C476 265.72 476 260.44 476 255 C413.3 255 350.6 255 286 255 Z " fill="#AD0000" transform="translate(159,393)"/>
<path d="M0 0 C93.72 0 187.44 0 284 0 C285.14882047 17.2323071 285.14882047 17.2323071 285.11352539 23.86303711 C285.11367142 24.62600601 285.11381744 25.38897491 285.1139679 26.17506409 C285.11328704 28.62585592 285.10558343 31.07656568 285.09765625 33.52734375 C285.09578553 35.25468403 285.09436473 36.98202484 285.09336853 38.70936584 C285.08959477 43.2021945 285.07980999 47.69498957 285.06866455 52.18780518 C285.05833831 56.79381862 285.05384717 61.39983763 285.04882812 66.00585938 C285.03818178 75.0039232 285.02062826 84.00195352 285 93 C290.61 93 296.22 93 302 93 C302 109.17 302 125.34 302 142 C307.28 142 312.56 142 318 142 C318 152.23 318 162.46 318 173 C323.28 173 328.56 173 334 173 C334 188.84 334 204.68 334 221 C338.95 221 343.9 221 349 221 C349 247.73 349 274.46 349 302 C344.05 302 339.1 302 334 302 C334 307.28 334 312.56 334 318 C328.72 318 323.44 318 318 318 C318 322.95 318 327.9 318 333 C312.72 333 307.44 333 302 333 C302 338.28 302 343.56 302 349 C286.16 349 270.32 349 254 349 C254 354.28 254 359.56 254 365 C248.72 365 243.44 365 238 365 C238 370.28 238 375.56 238 381 C174.64 381 111.28 381 46 381 C46 375.72 46 370.44 46 365 C40.72 365 35.44 365 30 365 C30 359.72 30 354.44 30 349 C14.49 349 -1.02 349 -17 349 C-17 343.72 -17 338.44 -17 333 C-22.61 333 -28.22 333 -34 333 C-34 328.05 -34 323.1 -34 318 C-39.28 318 -44.56 318 -50 318 C-50 312.72 -50 307.44 -50 302 C-54.95 302 -59.9 302 -65 302 C-65 275.27 -65 248.54 -65 221 C-60.05 221 -55.1 221 -50 221 C-50 205.16 -50 189.32 -50 173 C-44.72 173 -39.44 173 -34 173 C-34 162.77 -34 152.54 -34 142 C-28.39 142 -22.78 142 -17 142 C-17 125.83 -17 109.66 -17 93 C-11.72 93 -6.44 93 -1 93 C-1.00523682 90.71570068 -1.01047363 88.43140137 -1.01586914 86.07788086 C-1.03254516 78.47438243 -1.04352686 70.87088313 -1.05181217 63.26737118 C-1.05699914 58.6638332 -1.06401937 54.06031418 -1.07543945 49.45678711 C-1.08641883 45.00230794 -1.09230824 40.54784685 -1.09487724 36.09335518 C-1.09670468 34.40597818 -1.10027217 32.718602 -1.10573006 31.03123283 C-1.11314132 28.64181361 -1.11398271 26.25246622 -1.11352539 23.86303711 C-1.11712067 23.18760864 -1.12071594 22.51218018 -1.12442017 21.81628418 C-1.10953999 14.48885822 -0.49113183 7.36697742 0 0 Z M47 31 C47 36.28 47 41.56 47 47 C41.72 47 36.44 47 31 47 C31 52.28 31 57.56 31 63 C26.05 63 21.1 63 16 63 C16 78.51 16 94.02 16 110 C10.39 110 4.78 110 -1 110 C-1 125.84 -1 141.68 -1 158 C-6.28 158 -11.56 158 -17 158 C-17 168.23 -17 178.46 -17 189 C-22.28 189 -27.56 189 -33 189 C-33 225.96 -33 262.92 -33 301 C-27.39 301 -21.78 301 -16 301 C-16 306.28 -16 311.56 -16 317 C-0.49 317 15.02 317 31 317 C31 321.95 31 326.9 31 332 C41.56 332 52.12 332 63 332 C63 337.28 63 342.56 63 348 C115.14 348 167.28 348 221 348 C221 342.72 221 337.44 221 332 C231.89 332 242.78 332 254 332 C254 327.38 254 322.76 254 318 C269.51 318 285.02 318 301 318 C301 312.72 301 307.44 301 302 C306.28 302 311.56 302 317 302 C317 264.71 317 227.42 317 189 C311.72 189 306.44 189 301 189 C301 178.77 301 168.54 301 158 C295.72 158 290.44 158 285 158 C285 147.44 285 136.88 285 126 C279.72 126 274.44 126 269 126 C269 105.21 269 84.42 269 63 C263.72 63 258.44 63 253 63 C253 57.72 253 52.44 253 47 C247.72 47 242.44 47 237 47 C237 41.72 237 36.44 237 31 C174.3 31 111.6 31 47 31 Z " fill="#603501" transform="translate(398,617)"/>
<path d="M0 0 C15.84 0 31.68 0 48 0 C48 5.28 48 10.56 48 16 C58.56 16 69.12 16 80 16 C80 20.95 80 25.9 80 31 C85.28 31 90.56 31 96 31 C96 36.28 96 41.56 96 47 C106.23 47 116.46 47 127 47 C127 52.28 127 57.56 127 63 C132.61 63 138.22 63 144 63 C144 68.28 144 73.56 144 79 C154.56 79 165.12 79 176 79 C176 84.28 176 89.56 176 95 C180.95 95 185.9 95 191 95 C191 99.95 191 104.9 191 110 C201.56 110 212.12 110 223 110 C223 115.28 223 120.56 223 126 C228.28 126 233.56 126 239 126 C239 131.28 239 136.56 239 142 C244.28 142 249.56 142 255 142 C255 147.28 255 152.56 255 158 C259.95 158 264.9 158 270 158 C270 163.61 270 169.22 270 175 C275.28 175 280.56 175 286 175 C286 179.62 286 184.24 286 189 C291.28 189 296.56 189 302 189 C302 194.28 302 199.56 302 205 C307.28 205 312.56 205 318 205 C318 210.61 318 216.22 318 222 C323.61 222 329.22 222 335 222 C335 227.28 335 232.56 335 238 C339.62 238 344.24 238 349 238 C349 248.23 349 258.46 349 269 C344.05 269 339.1 269 334 269 C334 264.38 334 259.76 334 255 C328.39 255 322.78 255 317 255 C317 249.72 317 244.44 317 239 C311.72 239 306.44 239 301 239 C301 233.72 301 228.44 301 223 C296.05 223 291.1 223 286 223 C286 228.28 286 233.56 286 239 C280.72 239 275.44 239 270 239 C270 244.28 270 249.56 270 255 C264.72 255 259.44 255 254 255 C254 259.95 254 264.9 254 270 C238.16 270 222.32 270 206 270 C206 275.28 206 280.56 206 286 C200.72 286 195.44 286 190 286 C190 280.39 190 274.78 190 269 C185.05 269 180.1 269 175 269 C175 264.38 175 259.76 175 255 C169.72 255 164.44 255 159 255 C159 244.44 159 233.88 159 223 C153.72 223 148.44 223 143 223 C143 212.11 143 201.22 143 190 C137.72 190 132.44 190 127 190 C127 185.05 127 180.1 127 175 C121.72 175 116.44 175 111 175 C111 164.44 111 153.88 111 143 C121.56 143 132.12 143 143 143 C143 132.44 143 121.88 143 111 C148.28 111 153.56 111 159 111 C159 106.05 159 101.1 159 96 C153.72 96 148.44 96 143 96 C143 90.72 143 85.44 143 80 C132.11 80 121.22 80 110 80 C110 74.39 110 68.78 110 63 C100.1 63 90.2 63 80 63 C80 57.72 80 52.44 80 47 C74.72 47 69.44 47 64 47 C64 41.72 64 36.44 64 31 C53.11 31 42.22 31 31 31 C31 26.38 31 21.76 31 17 C20.77 17 10.54 17 0 17 C0 11.39 0 5.78 0 0 Z " fill="#000000" transform="translate(556,124)"/>
<path d="M0 0 C10.23 0 20.46 0 31 0 C31 5.28 31 10.56 31 16 C26.38 16 21.76 16 17 16 C17 21.61 17 27.22 17 33 C6.44 33 -4.12 33 -15 33 C-15 38.28 -15 43.56 -15 49 C-20.61 49 -26.22 49 -32 49 C-32 53.95 -32 58.9 -32 64 C-26.72 64 -21.44 64 -16 64 C-16 74.56 -16 85.12 -16 96 C-5.44 96 5.12 96 16 96 C16 106.56 16 117.12 16 128 C10.72 128 5.44 128 0 128 C0 132.95 0 137.9 0 143 C-5.28 143 -10.56 143 -16 143 C-16 153.89 -16 164.78 -16 176 C-21.28 176 -26.56 176 -32 176 C-32 186.56 -32 197.12 -32 208 C-37.28 208 -42.56 208 -48 208 C-48 212.62 -48 217.24 -48 222 C-52.95 222 -57.9 222 -63 222 C-63 227.61 -63 233.22 -63 239 C-68.28 239 -73.56 239 -79 239 C-79 233.72 -79 228.44 -79 223 C-80.44882568 223.00523682 -81.89765137 223.01047363 -83.39038086 223.01586914 C-88.74454129 223.03391273 -94.09869901 223.04542965 -99.45288086 223.05493164 C-101.77417451 223.05997333 -104.09546497 223.06680651 -106.41674805 223.07543945 C-109.74528795 223.08751225 -113.07378602 223.09322979 -116.40234375 223.09765625 C-117.96951393 223.10539818 -117.96951393 223.10539818 -119.56834412 223.11329651 C-120.52926468 223.11337204 -121.49018524 223.11344757 -122.48022461 223.11352539 C-123.33071884 223.115746 -124.18121307 223.11796661 -125.05747986 223.12025452 C-127 223 -127 223 -128 222 C-128.14426614 217.33154772 -128.04208415 212.67134047 -128 208 C-132.95 208 -137.9 208 -143 208 C-143 202.72 -143 197.44 -143 192 C-148.28 192 -153.56 192 -159 192 C-159 186.72 -159 181.44 -159 176 C-163.95 176 -168.9 176 -174 176 C-174 181.28 -174 186.56 -174 192 C-179.28 192 -184.56 192 -190 192 C-190 197.28 -190 202.56 -190 208 C-195.61 208 -201.22 208 -207 208 C-207 212.62 -207 217.24 -207 222 C-211.95 222 -216.9 222 -222 222 C-222 211.77 -222 201.54 -222 191 C-217.38 191 -212.76 191 -208 191 C-208 185.72 -208 180.44 -208 175 C-202.39 175 -196.78 175 -191 175 C-191 169.39 -191 163.78 -191 158 C-185.72 158 -180.44 158 -175 158 C-175 152.72 -175 147.44 -175 142 C-169.72 142 -164.44 142 -159 142 C-159 137.38 -159 132.76 -159 128 C-153.72 128 -148.44 128 -143 128 C-143 122.39 -143 116.78 -143 111 C-138.05 111 -133.1 111 -128 111 C-128 105.72 -128 100.44 -128 95 C-122.72 95 -117.44 95 -112 95 C-112 89.72 -112 84.44 -112 79 C-106.72 79 -101.44 79 -96 79 C-96 73.72 -96 68.44 -96 63 C-85.44 63 -74.88 63 -64 63 C-64 58.05 -64 53.1 -64 48 C-59.05 48 -54.1 48 -49 48 C-49 42.72 -49 37.44 -49 32 C-38.11 32 -27.22 32 -16 32 C-16 26.72 -16 21.44 -16 16 C-10.72 16 -5.44 16 0 16 C0 10.72 0 5.44 0 0 Z " fill="#030101" transform="translate(397,171)"/>
<path d="M0 0 C4.95 0 9.9 0 15 0 C15 5.61 15 11.22 15 17 C20.28 17 25.56 17 31 17 C31 22.28 31 27.56 31 33 C36.28 33 41.56 33 47 33 C47 38.28 47 43.56 47 49 C52.61 49 58.22 49 64 49 C64 54.28 64 59.56 64 65 C69.28 65 74.56 65 80 65 C80 69.95 80 74.9 80 80 C84.62 80 89.24 80 94 80 C94 85.28 94 90.56 94 96 C99.28 96 104.56 96 110 96 C110 101.28 110 106.56 110 112 C104.72 112 99.44 112 94 112 C94 117.28 94 122.56 94 128 C83.77 128 73.54 128 63 128 C63 133.28 63 138.56 63 144 C57.72 144 52.44 144 47 144 C47 139.05 47 134.1 47 129 C41.72 129 36.44 129 31 129 C31 133.95 31 138.9 31 144 C25.72 144 20.44 144 15 144 C15 133.44 15 122.88 15 112 C10.05 112 5.1 112 0 112 C0 101.44 0 90.88 0 80 C-5.28 80 -10.56 80 -16 80 C-16 59.21 -16 38.42 -16 17 C-10.72 17 -5.44 17 0 17 C0 11.39 0 5.78 0 0 Z " fill="#FDB0B0" transform="translate(731,234)"/>
<path d="M0 0 C4.62 0 9.24 0 14 0 C14 5.28 14 10.56 14 16 C19.28 16 24.56 16 30 16 C30 36.79 30 57.58 30 79 C24.72 79 19.44 79 14 79 C14 89.56 14 100.12 14 111 C9.05 111 4.1 111 -1 111 C-1 121.56 -1 132.12 -1 143 C-6.28 143 -11.56 143 -17 143 C-17 138.05 -17 133.1 -17 128 C-22.28 128 -27.56 128 -33 128 C-33 132.95 -33 137.9 -33 143 C-38.28 143 -43.56 143 -49 143 C-49 137.72 -49 132.44 -49 127 C-59.23 127 -69.46 127 -80 127 C-80 121.72 -80 116.44 -80 111 C-85.28 111 -90.56 111 -96 111 C-96 105.72 -96 100.44 -96 95 C-90.72 95 -85.44 95 -80 95 C-80 89.72 -80 84.44 -80 79 C-75.05 79 -70.1 79 -65 79 C-65 74.38 -65 69.76 -65 65 C-59.72 65 -54.44 65 -49 65 C-49 59.39 -49 53.78 -49 48 C-43.72 48 -38.44 48 -33 48 C-33 42.72 -33 37.44 -33 32 C-27.72 32 -22.44 32 -17 32 C-17 26.72 -17 21.44 -17 16 C-11.39 16 -5.78 16 0 16 C0 10.72 0 5.44 0 0 Z " fill="#FEB1B1" transform="translate(335,235)"/>
<path d="M0 0 C5.28 0 10.56 0 16 0 C16 37.29 16 74.58 16 113 C10.72 113 5.44 113 0 113 C0 118.28 0 123.56 0 129 C-15.51 129 -31.02 129 -47 129 C-47 133.62 -47 138.24 -47 143 C-57.89 143 -68.78 143 -80 143 C-80 148.28 -80 153.56 -80 159 C-132.14 159 -184.28 159 -238 159 C-238 153.72 -238 148.44 -238 143 C-248.56 143 -259.12 143 -270 143 C-270 138.05 -270 133.1 -270 128 C-238.65 128 -207.3 128 -175 128 C-175 132.95 -175 137.9 -175 143 C-164.44 143 -153.88 143 -143 143 C-143 138.05 -143 133.1 -143 128 C-111.32 128 -79.64 128 -47 128 C-47 122.72 -47 117.44 -47 112 C-36.77 112 -26.54 112 -16 112 C-16 101.44 -16 90.88 -16 80 C-10.72 80 -5.44 80 0 80 C0 59.21 0 38.42 0 17 C4.95 17 9.9 17 15 17 C15 11.72 15 6.44 15 1 C10.05 1 5.1 1 0 1 C0 0.67 0 0.34 0 0 Z " fill="#FDD76A" transform="translate(699,806)"/>
<path d="M0 0 C15.18 0 30.36 0 46 0 C46 4.62 46 9.24 46 14 C62.17 14 78.34 14 95 14 C95 19.61 95 25.22 95 31 C99.62 31 104.24 31 109 31 C109 41.23 109 51.46 109 62 C67.75 62 26.5 62 -16 62 C-16 46.49 -16 30.98 -16 15 C-10.72 15 -5.44 15 0 15 C0 10.05 0 5.1 0 0 Z " fill="#FEB1B1" transform="translate(636,538)"/>
<path d="M0 0 C15.18 0 30.36 0 46 0 C46 4.95 46 9.9 46 15 C51.28 15 56.56 15 62 15 C62 30.51 62 46.02 62 62 C20.75 62 -20.5 62 -63 62 C-63 51.77 -63 41.54 -63 31 C-58.38 31 -53.76 31 -49 31 C-49 25.39 -49 19.78 -49 14 C-32.83 14 -16.66 14 0 14 C0 9.38 0 4.76 0 0 Z " fill="#FEB1B1" transform="translate(398,538)"/>
<path d="M0 0 C5.28 0 10.56 0 16 0 C16 5.28 16 10.56 16 16 C21.61 16 27.22 16 33 16 C33 26.56 33 37.12 33 48 C38.28 48 43.56 48 49 48 C49 58.23 49 68.46 49 79 C54.28 79 59.56 79 65 79 C65 111.01 65 143.02 65 176 C59.72 176 54.44 176 49 176 C49 181.28 49 186.56 49 192 C43.72 192 38.44 192 33 192 C33 197.28 33 202.56 33 208 C27.39 208 21.78 208 16 208 C16 213.61 16 219.22 16 225 C0.29232832 225.0925796 -15.32586725 225.18295342 -31 224 C-31 218.72 -31 213.44 -31 208 C-20.77 208 -10.54 208 0 208 C0 202.72 0 197.44 0 192 C5.28 192 10.56 192 16 192 C16 186.72 16 181.44 16 176 C21.28 176 26.56 176 32 176 C32 170.39 32 164.78 32 159 C37.28 159 42.56 159 48 159 C48 138.21 48 117.42 48 96 C42.72 96 37.44 96 32 96 C32 85.77 32 75.54 32 65 C26.72 65 21.44 65 16 65 C16 54.11 16 43.22 16 32 C10.72 32 5.44 32 0 32 C0 21.44 0 10.88 0 0 Z " fill="#010000" transform="translate(905,393)"/>
<path d="M0 0 C5.28 0 10.56 0 16 0 C16 10.56 16 21.12 16 32 C10.72 32 5.44 32 0 32 C0 42.89 0 53.78 0 65 C-5.28 65 -10.56 65 -16 65 C-16 75.23 -16 85.46 -16 96 C-21.28 96 -26.56 96 -32 96 C-32 116.79 -32 137.58 -32 159 C-26.72 159 -21.44 159 -16 159 C-16 164.61 -16 170.22 -16 176 C-10.72 176 -5.44 176 0 176 C0 181.28 0 186.56 0 192 C5.28 192 10.56 192 16 192 C16 197.28 16 202.56 16 208 C26.23 208 36.46 208 47 208 C47 213.28 47 218.56 47 224 C31.32586725 225.18295342 15.70767168 225.0925796 0 225 C0 219.39 0 213.78 0 208 C-5.61 208 -11.22 208 -17 208 C-17 202.72 -17 197.44 -17 192 C-22.28 192 -27.56 192 -33 192 C-33 186.72 -33 181.44 -33 176 C-38.28 176 -43.56 176 -49 176 C-49 143.99 -49 111.98 -49 79 C-43.72 79 -38.44 79 -33 79 C-33 68.77 -33 58.54 -33 48 C-27.72 48 -22.44 48 -17 48 C-17 37.44 -17 26.88 -17 16 C-11.39 16 -5.78 16 0 16 C0 10.72 0 5.44 0 0 Z " fill="#010000" transform="translate(159,393)"/>
<path d="M0 0 C15.84 0 31.68 0 48 0 C48 5.28 48 10.56 48 16 C58.56 16 69.12 16 80 16 C80 20.95 80 25.9 80 31 C85.28 31 90.56 31 96 31 C96 36.28 96 41.56 96 47 C106.23 47 116.46 47 127 47 C127 52.28 127 57.56 127 63 C132.61 63 138.22 63 144 63 C144 68.28 144 73.56 144 79 C154.56 79 165.12 79 176 79 C176 84.28 176 89.56 176 95 C180.95 95 185.9 95 191 95 C191 105.23 191 115.46 191 126 C195.95 126 200.9 126 206 126 C206 126.33 206 126.66 206 127 C200.72 127 195.44 127 190 127 C190 121.39 190 115.78 190 110 C185.05 110 180.1 110 175 110 C175 115.61 175 121.22 175 127 C169.72 127 164.44 127 159 127 C159 137.56 159 148.12 159 159 C148.44 159 137.88 159 127 159 C127 153.72 127 148.44 127 143 C132.28 143 137.56 143 143 143 C143 132.44 143 121.88 143 111 C148.28 111 153.56 111 159 111 C159 106.05 159 101.1 159 96 C153.72 96 148.44 96 143 96 C143 90.72 143 85.44 143 80 C132.11 80 121.22 80 110 80 C110 74.39 110 68.78 110 63 C100.1 63 90.2 63 80 63 C80 57.72 80 52.44 80 47 C74.72 47 69.44 47 64 47 C64 41.72 64 36.44 64 31 C53.11 31 42.22 31 31 31 C31 26.38 31 21.76 31 17 C20.77 17 10.54 17 0 17 C0 11.39 0 5.78 0 0 Z " fill="#020101" transform="translate(556,124)"/>
<path d="M0 0 C5.28 0 10.56 0 16 0 C16 5.28 16 10.56 16 16 C26.56 16 37.12 16 48 16 C48 26.23 48 36.46 48 47 C53.28 47 58.56 47 64 47 C64 57.56 64 68.12 64 79 C68.95 79 73.9 79 79 79 C79 89.56 79 100.12 79 111 C84.28 111 89.56 111 95 111 C95 106.05 95 101.1 95 96 C100.28 96 105.56 96 111 96 C111 101.28 111 106.56 111 112 C105.72 112 100.44 112 95 112 C95 116.62 95 121.24 95 126 C110.84 126 126.68 126 143 126 C143 126.33 143 126.66 143 127 C127.16 127 111.32 127 95 127 C95 132.28 95 137.56 95 143 C89.72 143 84.44 143 79 143 C79 137.39 79 131.78 79 126 C74.05 126 69.1 126 64 126 C64 121.38 64 116.76 64 112 C58.72 112 53.44 112 48 112 C48 101.44 48 90.88 48 80 C42.72 80 37.44 80 32 80 C32 69.11 32 58.22 32 47 C26.72 47 21.44 47 16 47 C16 42.05 16 37.1 16 32 C10.72 32 5.44 32 0 32 C0 21.44 0 10.88 0 0 Z " fill="#AC0101" transform="translate(667,267)"/>
<path d="M0 0 C5.28 0 10.56 0 16 0 C16 10.56 16 21.12 16 32 C10.72 32 5.44 32 0 32 C0 36.95 0 41.9 0 47 C-5.28 47 -10.56 47 -16 47 C-16 57.89 -16 68.78 -16 80 C-21.28 80 -26.56 80 -32 80 C-32 90.56 -32 101.12 -32 112 C-37.28 112 -42.56 112 -48 112 C-48 116.62 -48 121.24 -48 126 C-52.95 126 -57.9 126 -63 126 C-63 131.61 -63 137.22 -63 143 C-68.28 143 -73.56 143 -79 143 C-79 137.72 -79 132.44 -79 127 C-94.84 127 -110.68 127 -127 127 C-127 126.67 -127 126.34 -127 126 C-111.16 126 -95.32 126 -79 126 C-79 121.38 -79 116.76 -79 112 C-84.28 112 -89.56 112 -95 112 C-95 106.72 -95 101.44 -95 96 C-89.72 96 -84.44 96 -79 96 C-79 100.95 -79 105.9 -79 111 C-73.72 111 -68.44 111 -63 111 C-63 100.44 -63 89.88 -63 79 C-58.05 79 -53.1 79 -48 79 C-48 68.44 -48 57.88 -48 47 C-42.72 47 -37.44 47 -32 47 C-32 36.77 -32 26.54 -32 16 C-21.44 16 -10.88 16 0 16 C0 10.72 0 5.44 0 0 Z " fill="#AC0101" transform="translate(397,267)"/>
<path d="M0 0 C5.28 0 10.56 0 16 0 C16 0.33 16 0.66 16 1 C11.05 1 6.1 1 1 1 C1 6.28 1 11.56 1 17 C5.95 17 10.9 17 16 17 C16 37.79 16 58.58 16 80 C21.61 80 27.22 80 33 80 C33 90.56 33 101.12 33 112 C42.9 112 52.8 112 63 112 C63 117.28 63 122.56 63 128 C47.82 128 32.64 128 17 128 C17 122.72 17 117.44 17 112 C11.39 112 5.78 112 0 112 C0 75.04 0 38.08 0 0 Z " fill="#FDD76A" transform="translate(365,806)"/>
<path d="M0 0 C10.56 0 21.12 0 32 0 C32 15.84 32 31.68 32 48 C37.28 48 42.56 48 48 48 C48 53.61 48 59.22 48 65 C53.28 65 58.56 65 64 65 C64 69.62 64 74.24 64 79 C69.28 79 74.56 79 80 79 C80 84.61 80 90.22 80 96 C69.11 96 58.22 96 47 96 C47 90.72 47 85.44 47 80 C41.72 80 36.44 80 31 80 C31 69.77 31 59.54 31 49 C26.05 49 21.1 49 16 49 C16 38.44 16 27.88 16 17 C10.72 17 5.44 17 0 17 C0 11.39 0 5.78 0 0 Z " fill="#FFFDFA" transform="translate(397,790)"/>
<path d="M0 0 C5.61 0 11.22 0 17 0 C17 5.28 17 10.56 17 16 C22.28 16 27.56 16 33 16 C33 26.89 33 37.78 33 49 C38.28 49 43.56 49 49 49 C49 64.51 49 80.02 49 96 C43.39 96 37.78 96 32 96 C32 85.44 32 74.88 32 64 C26.72 64 21.44 64 16 64 C16 53.77 16 43.54 16 33 C10.72 33 5.44 33 0 33 C0 22.11 0 11.22 0 0 Z " fill="#FFF4F4" transform="translate(841,409)"/>
<path d="M0 0 C5.28 0 10.56 0 16 0 C16 16.17 16 32.34 16 49 C11.05 49 6.1 49 1 49 C1 59.23 1 69.46 1 80 C-4.28 80 -9.56 80 -15 80 C-15 85.28 -15 90.56 -15 96 C-25.89 96 -36.78 96 -48 96 C-48 90.39 -48 84.78 -48 79 C-42.72 79 -37.44 79 -32 79 C-32 74.38 -32 69.76 -32 65 C-26.72 65 -21.44 65 -16 65 C-16 59.39 -16 53.78 -16 48 C-10.72 48 -5.44 48 0 48 C0 32.16 0 16.32 0 0 Z " fill="#FFFEFD" transform="translate(651,790)"/>
<path d="M0 0 C5.61 0 11.22 0 17 0 C17 10.89 17 21.78 17 33 C11.39 33 5.78 33 0 33 C0 42.9 0 52.8 0 63 C-5.28 63 -10.56 63 -16 63 C-16 73.89 -16 84.78 -16 96 C-21.28 96 -26.56 96 -32 96 C-32 80.49 -32 64.98 -32 49 C-26.72 49 -21.44 49 -16 49 C-16 38.11 -16 27.22 -16 16 C-10.72 16 -5.44 16 0 16 C0 10.72 0 5.44 0 0 Z " fill="#FFF7F7" transform="translate(222,409)"/>
<path d="M0 0 C15.84 0 31.68 0 48 0 C48 5.61 48 11.22 48 17 C37.77 17 27.54 17 17 17 C17 21.62 17 26.24 17 31 C6.11 31 -4.78 31 -16 31 C-16 36.28 -16 41.56 -16 47 C-26.56 47 -37.12 47 -48 47 C-48 41.72 -48 36.44 -48 31 C-42.72 31 -37.44 31 -32 31 C-32 26.05 -32 21.1 -32 16 C-21.44 16 -10.88 16 0 16 C0 10.72 0 5.44 0 0 Z " fill="#020000" transform="translate(476,124)"/>
<path d="M0 0 C20.79 0 41.58 0 63 0 C63 4.95 63 9.9 63 15 C47.16 15 31.32 15 15 15 C15 20.28 15 25.56 15 31 C10.05 31 5.1 31 0 31 C0 36.61 0 42.22 0 48 C-10.56 48 -21.12 48 -32 48 C-32 42.72 -32 37.44 -32 32 C-26.72 32 -21.44 32 -16 32 C-16 26.39 -16 20.78 -16 15 C-10.72 15 -5.44 15 0 15 C0 10.05 0 5.1 0 0 Z " fill="#070101" transform="translate(334,537)"/>
<path d="M0 0 C20.79 0 41.58 0 63 0 C63 4.95 63 9.9 63 15 C68.28 15 73.56 15 79 15 C79 20.61 79 26.22 79 32 C84.28 32 89.56 32 95 32 C95 36.95 95 41.9 95 47 C84.44 47 73.88 47 63 47 C63 41.72 63 36.44 63 31 C58.05 31 53.1 31 48 31 C48 25.72 48 20.44 48 15 C32.16 15 16.32 15 0 15 C0 10.05 0 5.1 0 0 Z " fill="#060101" transform="translate(683,537)"/>
<path d="M0 0 C10.56 0 21.12 0 32 0 C32 5.61 32 11.22 32 17 C37.61 17 43.22 17 49 17 C49 21.95 49 26.9 49 32 C54.28 32 59.56 32 65 32 C65 42.56 65 53.12 65 64 C59.39 64 53.78 64 48 64 C48 53.77 48 43.54 48 33 C37.44 33 26.88 33 16 33 C16 27.72 16 22.44 16 17 C10.72 17 5.44 17 0 17 C0 11.39 0 5.78 0 0 Z " fill="#FFFAFA" transform="translate(587,171)"/>
<path d="M0 0 C10.89 0 21.78 0 33 0 C33 4.95 33 9.9 33 15 C27.72 15 22.44 15 17 15 C17 20.61 17 26.22 17 32 C6.44 32 -4.12 32 -15 32 C-15 37.28 -15 42.56 -15 48 C-20.28 48 -25.56 48 -31 48 C-31 52.95 -31 57.9 -31 63 C-36.28 63 -41.56 63 -47 63 C-47 58.05 -47 53.1 -47 48 C-42.05 48 -37.1 48 -32 48 C-32 42.39 -32 36.78 -32 31 C-26.72 31 -21.44 31 -16 31 C-16 25.72 -16 20.44 -16 15 C-10.72 15 -5.44 15 0 15 C0 10.05 0 5.1 0 0 Z " fill="#FFFEFE" transform="translate(460,172)"/>
<path d="M0 0 C10.28304929 -0.02255131 20.56608228 -0.04091525 30.84915066 -0.05181217 C35.6234828 -0.05704093 40.39779721 -0.06413844 45.17211914 -0.07543945 C49.77566262 -0.0862686 54.37918899 -0.09227689 58.98274422 -0.09487724 C60.74309623 -0.09673144 62.50344726 -0.10035196 64.26379204 -0.10573006 C66.72072277 -0.11294086 69.17758195 -0.11399093 71.63452148 -0.11352539 C72.73719109 -0.1189183 72.73719109 -0.1189183 73.86213684 -0.12442017 C78.88594784 -0.11405216 78.88594784 -0.11405216 80 1 C80 6.28 80 11.56 80 17 C53.6 17 27.2 17 0 17 C0 11.39 0 5.78 0 0 Z " fill="#F93333" transform="translate(794,600)"/>
<path d="M0 0 C26.07 0 52.14 0 79 0 C79 5.61 79 11.22 79 17 C52.93 17 26.86 17 0 17 C0 11.39 0 5.78 0 0 Z " fill="#FA3333" transform="translate(207,600)"/>
<path d="M0 0 C0.33 0 0.66 0 1 0 C1 5.28 1 10.56 1 16 C-4.28 16 -9.56 16 -15 16 C-15 20.95 -15 25.9 -15 31 C-4.77 31 5.46 31 16 31 C16 26.05 16 21.1 16 16 C16.33 16 16.66 16 17 16 C17 21.28 17 26.56 17 32 C6.44 32 -4.12 32 -15 32 C-15 37.28 -15 42.56 -15 48 C-20.28 48 -25.56 48 -31 48 C-31 52.95 -31 57.9 -31 63 C-36.28 63 -41.56 63 -47 63 C-47 58.05 -47 53.1 -47 48 C-42.05 48 -37.1 48 -32 48 C-32 42.39 -32 36.78 -32 31 C-26.72 31 -21.44 31 -16 31 C-16 25.72 -16 20.44 -16 15 C-10.72 15 -5.44 15 0 15 C0 10.05 0 5.1 0 0 Z " fill="#FFA2A2" transform="translate(460,172)"/>
<path d="M0 0 C0.33 0 0.66 0 1 0 C1 5.28 1 10.56 1 16 C6.28 16 11.56 16 17 16 C17 21.28 17 26.56 17 32 C27.23 32 37.46 32 48 32 C48 37.28 48 42.56 48 48 C53.28 48 58.56 48 64 48 C64 48.33 64 48.66 64 49 C58.39 49 52.78 49 47 49 C47 43.72 47 38.44 47 33 C37.1 33 27.2 33 17 33 C17 37.95 17 42.9 17 48 C21.95 48 26.9 48 32 48 C32 52.95 32 57.9 32 63 C31.67 63 31.34 63 31 63 C31 58.38 31 53.76 31 49 C26.05 49 21.1 49 16 49 C16 43.72 16 38.44 16 33 C10.72 33 5.44 33 0 33 C0 27.72 0 22.44 0 17 C-4.95 17 -9.9 17 -15 17 C-15 22.28 -15 27.56 -15 33 C-20.28 33 -25.56 33 -31 33 C-31 38.28 -31 43.56 -31 49 C-36.61 49 -42.22 49 -48 49 C-48 48.67 -48 48.34 -48 48 C-42.72 48 -37.44 48 -32 48 C-32 42.72 -32 37.44 -32 32 C-26.72 32 -21.44 32 -16 32 C-16 26.72 -16 21.44 -16 16 C-10.72 16 -5.44 16 0 16 C0 10.72 0 5.44 0 0 Z " fill="#7E3131" transform="translate(238,330)"/>
<path d="M0 0 C0.33 0 0.66 0 1 0 C1 5.28 1 10.56 1 16 C6.28 16 11.56 16 17 16 C17 21.28 17 26.56 17 32 C22.28 32 27.56 32 33 32 C33 37.28 33 42.56 33 48 C38.28 48 43.56 48 49 48 C49 48.33 49 48.66 49 49 C43.39 49 37.78 49 32 49 C32 43.72 32 38.44 32 33 C26.72 33 21.44 33 16 33 C16 27.72 16 22.44 16 17 C11.05 17 6.1 17 1 17 C1 22.28 1 27.56 1 33 C-4.28 33 -9.56 33 -15 33 C-15 38.28 -15 43.56 -15 49 C-19.95 49 -24.9 49 -30 49 C-30 48.67 -30 48.34 -30 48 C-25.38 48 -20.76 48 -16 48 C-16 43.05 -16 38.1 -16 33 C-25.9 33 -35.8 33 -46 33 C-46 38.28 -46 43.56 -46 49 C-51.61 49 -57.22 49 -63 49 C-63 48.67 -63 48.34 -63 48 C-57.72 48 -52.44 48 -47 48 C-47 42.72 -47 37.44 -47 32 C-36.77 32 -26.54 32 -16 32 C-16 26.72 -16 21.44 -16 16 C-10.72 16 -5.44 16 0 16 C0 10.72 0 5.44 0 0 Z " fill="#7F3333" transform="translate(841,330)"/>
<path d="M0 0 C4.95 0 9.9 0 15 0 C15 9.9 15 19.8 15 30 C10.05 30 5.1 30 0 30 C0 20.1 0 10.2 0 0 Z " fill="#FFFFFF" transform="translate(636,204)"/>
<path d="M0 0 C4.95 0 9.9 0 15 0 C15 10.56 15 21.12 15 32 C20.28 32 25.56 32 31 32 C31 27.05 31 22.1 31 17 C36.28 17 41.56 17 47 17 C47 22.28 47 27.56 47 33 C36.11 33 25.22 33 14 33 C14 22.44 14 11.88 14 1 C9.38 1 4.76 1 0 1 C0 0.67 0 0.34 0 0 Z " fill="#F03A3A" transform="translate(731,346)"/>
<path d="M0 0 C4.95 0 9.9 0 15 0 C15 0.33 15 0.66 15 1 C10.38 1 5.76 1 1 1 C1 11.56 1 22.12 1 33 C-9.89 33 -20.78 33 -32 33 C-32 27.72 -32 22.44 -32 17 C-26.72 17 -21.44 17 -16 17 C-16 21.95 -16 26.9 -16 32 C-10.72 32 -5.44 32 0 32 C0 21.44 0 10.88 0 0 Z " fill="#F03A3A" transform="translate(334,346)"/>
<path d="M0 0 C5.61 0 11.22 0 17 0 C17 5.61 17 11.22 17 17 C11.39 17 5.78 17 0 17 C0 11.39 0 5.78 0 0 Z " fill="#000000" transform="translate(683,710)"/>
<path d="M0 0 C5.28 0 10.56 0 16 0 C16 5.61 16 11.22 16 17 C10.72 17 5.44 17 0 17 C0 11.39 0 5.78 0 0 Z " fill="#000000" transform="translate(381,710)"/>
<path d="M0 0 C5.28 0 10.56 0 16 0 C16 5.28 16 10.56 16 16 C10.72 16 5.44 16 0 16 C0 10.72 0 5.44 0 0 Z " fill="#FFFEFC" transform="translate(556,886)"/>
<path d="M0 0 C5.28 0 10.56 0 16 0 C16 5.28 16 10.56 16 16 C10.72 16 5.44 16 0 16 C0 10.72 0 5.44 0 0 Z " fill="#FFFEFD" transform="translate(508,886)"/>
<path d="M0 0 C5.28 0 10.56 0 16 0 C16 5.28 16 10.56 16 16 C10.72 16 5.44 16 0 16 C0 10.72 0 5.44 0 0 Z " fill="#050000" transform="translate(699,330)"/>
<path d="M0 0 C5.28 0 10.56 0 16 0 C16 5.28 16 10.56 16 16 C10.72 16 5.44 16 0 16 C0 10.72 0 5.44 0 0 Z " fill="#050000" transform="translate(365,330)"/>
<path d="M0 0 C5.28 0 10.56 0 16 0 C16 5.28 16 10.56 16 16 C10.72 16 5.44 16 0 16 C0 10.72 0 5.44 0 0 Z " fill="#FA3737" transform="translate(699,283)"/>
<path d="M0 0 C5.28 0 10.56 0 16 0 C16 5.28 16 10.56 16 16 C10.72 16 5.44 16 0 16 C0 10.72 0 5.44 0 0 Z " fill="#FA3737" transform="translate(365,283)"/>
<path d="M0 0 C5.28 0 10.56 0 16 0 C16 5.28 16 10.56 16 16 C10.72 16 5.44 16 0 16 C0 10.72 0 5.44 0 0 Z " fill="#FF4141" transform="translate(619,172)"/>
<path d="M0 0 C4.95 0 9.9 0 15 0 C15 5.28 15 10.56 15 16 C10.05 16 5.1 16 0 16 C0 10.72 0 5.44 0 0 Z " fill="#FEEDB9" transform="translate(699,902)"/>
<path d="M0 0 C4.95 0 9.9 0 15 0 C15 5.28 15 10.56 15 16 C10.05 16 5.1 16 0 16 C0 10.72 0 5.44 0 0 Z " fill="#FEEDB9" transform="translate(366,902)"/>
<path d="M0 0 C5.28 0 10.56 0 16 0 C16 4.95 16 9.9 16 15 C10.72 15 5.44 15 0 15 C0 10.05 0 5.1 0 0 Z " fill="#020000" transform="translate(715,363)"/>
<path d="M0 0 C5.28 0 10.56 0 16 0 C16 4.95 16 9.9 16 15 C10.72 15 5.44 15 0 15 C0 10.05 0 5.1 0 0 Z " fill="#020000" transform="translate(349,363)"/>
<path d="M0 0 C4.95 0 9.9 0 15 0 C15 4.95 15 9.9 15 15 C10.05 15 5.1 15 0 15 C0 10.05 0 5.1 0 0 Z " fill="#000000" transform="translate(826,347)"/>
<path d="M0 0 C4.95 0 9.9 0 15 0 C15 4.95 15 9.9 15 15 C10.05 15 5.1 15 0 15 C0 10.05 0 5.1 0 0 Z " fill="#000000" transform="translate(239,347)"/>
<path d="M0 0 C4.95 0 9.9 0 15 0 C15 4.95 15 9.9 15 15 C10.05 15 5.1 15 0 15 C0 10.05 0 5.1 0 0 Z " fill="#FFFFFF" transform="translate(429,204)"/>
<path d="M0 0 C5.28 0 10.56 0 16 0 C16 16.17 16 32.34 16 49 C11.05 49 6.1 49 1 49 C1 59.23 1 69.46 1 80 C-4.28 80 -9.56 80 -15 80 C-15 79.67 -15 79.34 -15 79 C-10.05 79 -5.1 79 0 79 C0 69.1 0 59.2 0 49 C-4.95 49 -9.9 49 -15 49 C-15 54.28 -15 59.56 -15 65 C-15.33 65 -15.66 65 -16 65 C-16 59.39 -16 53.78 -16 48 C-10.72 48 -5.44 48 0 48 C0 32.16 0 16.32 0 0 Z M1 1 C1 16.51 1 32.02 1 48 C5.62 48 10.24 48 15 48 C15 32.49 15 16.98 15 1 C10.38 1 5.76 1 1 1 Z " fill="#FFF6DB" transform="translate(651,790)"/>
<path d="M0 0 C4.62 0 9.24 0 14 0 C14 4.62 14 9.24 14 14 C9.38 14 4.76 14 0 14 C0 9.38 0 4.76 0 0 Z " fill="#FFFDFD" transform="translate(414,220)"/>
<path d="M0 0 C0.33 0 0.66 0 1 0 C1 4.95 1 9.9 1 15 C11.23 15 21.46 15 32 15 C32 10.05 32 5.1 32 0 C32.33 0 32.66 0 33 0 C33 4.95 33 9.9 33 15 C38.28 15 43.56 15 49 15 C49 25.56 49 36.12 49 47 C43.39 47 37.78 47 32 47 C32 36.77 32 26.54 32 16 C21.44 16 10.88 16 0 16 C0 10.72 0 5.44 0 0 Z M33 16 C33 25.9 33 35.8 33 46 C37.95 46 42.9 46 48 46 C48 36.1 48 26.2 48 16 C43.05 16 38.1 16 33 16 Z " fill="#FFA8A8" transform="translate(603,188)"/>
</svg>
